<svg width="48" height="62" viewBox="0 0 48 62" fill="none" xmlns="http://www.w3.org/2000/svg">
<path d="M23.7917 0C11.3253 0 0.891734 9.76132 0.0372048 22.2001C-0.285439 27.928 1.49867 33.58 5.0679 38.1371L21.8621 60.1152C22.0867 60.4089 22.3783 60.6474 22.7139 60.8117C23.0495 60.976 23.4198 61.0615 23.7952 61.0615C24.1706 61.0615 24.5408 60.976 24.8764 60.8117C25.212 60.6474 25.5037 60.4089 25.7282 60.1152L42.5156 38.1506C46.0842 33.5931 47.8683 27.9414 47.5463 22.2136C46.6917 9.76132 36.2582 0 23.7917 0ZM22.7343 39.2862C19.8606 35.6347 7.16147 26.8263 7.40185 22.2277C8.0014 13.4822 12.6966 6.72 23.7917 6.72C34.8868 6.72 38.5245 13.9857 39.1241 22.7446C39.3694 27.3501 25.6126 35.6293 22.7343 39.2862Z" fill="#1C1C1C"/>
</svg>
